<svg xmlns="http://www.w3.org/2000/svg" viewBox="0 0 760 230" role="img" aria-label="flower border">
  <defs>
    <g id="small-flower">
      <ellipse cx="0" cy="-12" rx="12" ry="20" fill="#ff8fbd"/>
      <ellipse cx="12" cy="-3" rx="12" ry="20" fill="#ffc3d8" transform="rotate(72 12 -3)"/>
      <ellipse cx="7" cy="10" rx="12" ry="20" fill="#ffaccd" transform="rotate(144 7 10)"/>
      <ellipse cx="-7" cy="10" rx="12" ry="20" fill="#fff5fa" transform="rotate(216 -7 10)"/>
      <ellipse cx="-12" cy="-3" rx="12" ry="20" fill="#ff9fc1" transform="rotate(288 -12 -3)"/>
      <circle r="7" fill="#fff0c8"/>
    </g>
    <g id="leaf">
      <path d="M0 0 C24 -16 47 -10 58 5 C36 15 15 13 0 0Z" fill="#93b96a"/>
    </g>
  </defs>
  <rect width="760" height="230" fill="none"/>
  <g opacity=".92">
    <path d="M0 205 C110 150 210 180 320 136 C450 82 580 114 760 46" fill="none" stroke="#96b96d" stroke-width="6" stroke-linecap="round"/>
    <path d="M0 225 C130 172 240 205 382 155 C520 106 610 132 760 78" fill="none" stroke="#c1d782" stroke-width="4" stroke-linecap="round"/>
    <use href="#small-flower" x="70" y="178" transform="scale(1.1)"/>
    <use href="#small-flower" x="174" y="161" transform="rotate(-12 174 161) scale(.86)"/>
    <use href="#small-flower" x="294" y="136" transform="rotate(16 294 136) scale(1.05)"/>
    <use href="#small-flower" x="422" y="96" transform="rotate(-6 422 96) scale(.98)"/>
    <use href="#small-flower" x="548" y="93" transform="rotate(18 548 93) scale(.84)"/>
    <use href="#small-flower" x="676" y="66" transform="rotate(-10 676 66) scale(1.1)"/>
    <use href="#leaf" x="118" y="175" transform="rotate(150 118 175)"/>
    <use href="#leaf" x="240" y="151" transform="rotate(-22 240 151)"/>
    <use href="#leaf" x="360" y="116" transform="rotate(164 360 116)"/>
    <use href="#leaf" x="500" y="93" transform="rotate(-18 500 93)"/>
    <use href="#leaf" x="620" y="78" transform="rotate(158 620 78)"/>
  </g>
</svg>
